# xmcd
# Track frame offsets:
# 182
# 7210
# 31237
# 36792
# 74295
# 85040
# 114515
# 122240
# 150937
# 169170
# 171907
# 181707
# 192952
# 209752
# 225470
#
# Disc length: 3360 seconds
# Revision: 0
# Processed by: cddbd v1.5.2PL0 Copyright (c) Steve Scherf et al.
# Submitted via: VisiTrax 2.10.3.257 - For more info visit www.synapsa.com
#
DISCID=c00d1e0f
DTITLE=Paul Colleaux, Ensemble Vocal de Nantes, Ensemble Stradivaria - Charpe
DTITLE=ntier: Le Jugement de Salomon - Cantique en l'honneur de Saint-Xavier
DYEAR=1987
DGENRE=Country
TTITLE0=Judicum Salomonis - Prelude
TTITLE1=Judicum Salomonis - Premier recitant - Le Peuple
TTITLE2=Judicum Salomonis - Trois de Peuple
TTITLE3=Judicum Salomonis - Salomon et le Peuple
TTITLE4=Judicum Salomonis - Prelude
TTITLE5=Judicum Salomonis - Deuxieme recitant - Dieu - Salomon
TTITLE6=Judicum Salomonis - Le Peuple
TTITLE7=Judicum Salomonis - La vraie Mere - La fausse Mere
TTITLE8=Judicum Salomonis - Le Peuple
TTITLE9=In honorem Sancti Xaverii Canticum - Prelude
TTITLE10=In honorem Sancti Xaverii Canticum - Premier dessus
TTITLE11=In honorem Sancti Xaverii Canticum - Second dessus
TTITLE12=In honorem Sancti Xaverii Canticum - Tous
TTITLE13=In honorem Sancti Xaverii Canticum - Xavier
TTITLE14=In honorem Sancti Xaverii Canticum - Tous
EXTD=
EXTT0=
EXTT1=
EXTT2=
EXTT3=
EXTT4=
EXTT5=
EXTT6=
EXTT7=
EXTT8=
EXTT9=
EXTT10=
EXTT11=
EXTT12=
EXTT13=
EXTT14=
PLAYORDER=
